<?xml version="1.0" encoding="UTF-8" standalone="no"?>
<svg width="800" height="400" xmlns="http://www.w3.org/2000/svg">
  <defs>
    <linearGradient id="bg-gradient" x1="0%" y1="0%" x2="100%" y2="100%">
      <stop offset="0%" style="stop-color:#3a7bd5;stop-opacity:0.2" />
      <stop offset="100%" style="stop-color:#00d2ff;stop-opacity:0.2" />
    </linearGradient>
  </defs>
  <rect width="800" height="400" fill="url(#bg-gradient)" />
  
  <!-- Mortar and Pestle -->
  <circle cx="400" cy="200" r="120" fill="white" opacity="0.9" />
  <circle cx="400" cy="200" r="90" fill="#f0f0f0" />
  <ellipse cx="400" cy="250" rx="70" ry="25" fill="#e0e0e0" />
  <path d="M370 160 L380 250 L420 250 L430 160 Z" fill="#d0d0d0" />
  
  <!-- Pills -->
  <circle cx="200" cy="120" r="25" fill="#ff6b6b" opacity="0.7" />
  <circle cx="600" cy="120" r="25" fill="#3a7bd5" opacity="0.7" />
  <circle cx="200" cy="280" r="25" fill="#00d2ff" opacity="0.7" />
  <circle cx="600" cy="280" r="25" fill="#ff6b6b" opacity="0.7" />
  
  <!-- Capsules -->
  <g transform="rotate(45, 300, 200)">
    <rect x="275" y="175" width="50" height="25" rx="12.5" fill="#3a7bd5" opacity="0.7" />
    <rect x="300" y="175" width="50" height="25" rx="12.5" fill="#00d2ff" opacity="0.7" />
  </g>
  
  <g transform="rotate(-45, 500, 200)">
    <rect x="475" y="175" width="50" height="25" rx="12.5" fill="#ff6b6b" opacity="0.7" />
    <rect x="500" y="175" width="50" height="25" rx="12.5" fill="#ffd166" opacity="0.7" />
  </g>
  
  <!-- Text -->
  <text x="400" y="350" font-family="Arial" font-size="24" text-anchor="middle" fill="#2d3436">Tikrit Pharmacy Curriculum 2025</text>
</svg>